<?xml version="1.0" encoding="utf-8"?>
<!-- Generator: Adobe Illustrator 17.1.0, SVG Export Plug-In . SVG Version: 6.00 Build 0)  -->
<!DOCTYPE svg PUBLIC "-//W3C//DTD SVG 1.1//EN" "http://www.w3.org/Graphics/SVG/1.1/DTD/svg11.dtd">
<svg version="1.1" id="Layer_1" xmlns="http://www.w3.org/2000/svg" xmlns:xlink="http://www.w3.org/1999/xlink" x="0px" y="0px"
	 viewBox="0 0 300 130" enable-background="new 0 0 300 130" xml:space="preserve">
<g>
	<defs>
		<rect id="SVGID_1_" x="-196" y="-130" width="693" height="390.1"/>
	</defs>
	<clipPath id="SVGID_2_">
		<use xlink:href="#SVGID_1_"  overflow="visible"/>
	</clipPath>
	<path clip-path="url(#SVGID_2_)" fill="#1D1D1B" d="M6.5,32.7v-0.2c0-15.6,11.9-27.8,28.1-27.8c10.9,0,18,4.6,22.7,11.1l-11.2,8.6
		c-3.1-3.7-6.6-6.3-11.7-6.3c-7.5,0-12.8,6.4-12.8,14.2v0.2c0,8,5.3,14.3,12.8,14.3c5.6,0,8.9-2.6,12.1-6.5l11.2,7.9
		c-5,7-11.8,12.1-23.6,12.1C18.8,60.3,6.5,48.6,6.5,32.7"/>
	<polygon clip-path="url(#SVGID_2_)" fill="#1D1D1B" points="64.1,5.8 78.9,5.8 78.9,46.3 104.8,46.3 99.4,59.2 64.1,59.2 	"/>
	<path clip-path="url(#SVGID_2_)" fill="#1D1D1B" d="M129.7,5.4H144l22.8,53.9h-15.9l-3.8-9.6h-20.7l-3.8,9.6H107L129.7,5.4z
		 M142.7,38.1l-6-15.1l-6,15.1H142.7z"/>
	<path clip-path="url(#SVGID_2_)" fill="#1D1D1B" d="M171.9,5.8h25.3c8.2,0,13.8,2.1,17.4,5.7c3.1,3.1,4.7,7.2,4.7,12.5v0.2
		c0,8.2-4.4,13.7-11,16.5l12.8,18.6h-17L193.3,43h-6.6v16.2h-14.8V5.8z M196.6,31.4c5,0,7.9-2.4,7.9-6.3v-0.2c0-4.3-3.1-6.4-8-6.4
		h-9.8v12.9H196.6z"/>
	<rect x="227.2" y="5.8" clip-path="url(#SVGID_2_)" fill="#1D1D1B" width="14.8" height="53.5"/>
	<path clip-path="url(#SVGID_2_)" fill="#1D1D1B" d="M247.8,51.3l8.3-9.9c5.3,4.2,11.2,6.4,17.3,6.4c4,0,6.2-1.4,6.2-3.7V44
		c0-2.3-1.8-3.4-9.1-5.2c-11.4-2.6-20.2-5.8-20.2-16.7V22c0-9.9,7.9-17.1,20.7-17.1c9.1,0,16.2,2.4,22,7.1l-7.4,10.5
		c-4.9-3.5-10.2-5.3-15-5.3c-3.6,0-5.3,1.5-5.3,3.4v0.2c0,2.4,1.8,3.5,9.3,5.2c12.2,2.7,19.9,6.6,19.9,16.7v0.2
		c0,10.9-8.6,17.4-21.6,17.4C263.4,60.2,254.4,57.2,247.8,51.3"/>
	<polygon clip-path="url(#SVGID_2_)" fill="#1D1D1B" points="5.3,71.1 21.8,71.1 33.9,104.9 46.1,71.1 62.3,71.1 40.6,124.9 
		26.9,124.9 	"/>
	<polygon clip-path="url(#SVGID_2_)" fill="#1D1D1B" points="67.5,71.1 110.5,71.1 110.5,83.6 82.2,83.6 82.2,91.8 107.9,91.8 
		107.9,103.4 82.2,103.4 82.2,111.9 110.9,111.9 110.9,124.5 67.5,124.5 	"/>
	<path clip-path="url(#SVGID_2_)" fill="#1D1D1B" d="M118.5,71.1h25.3c8.2,0,13.8,2.1,17.4,5.7c3.1,3.1,4.7,7.2,4.7,12.5v0.2
		c0,8.3-4.4,13.7-11,16.5l12.8,18.6h-17l-10.8-16.2h-6.6v16.2h-14.8V71.1z M143.2,96.7c5,0,7.9-2.4,7.9-6.3v-0.2
		c0-4.3-3.1-6.4-8-6.4h-9.8v12.9H143.2z"/>
	<path clip-path="url(#SVGID_2_)" fill="#1D1D1B" d="M173.5,71.1h27.4c6.7,0,11.5,1.7,14.6,4.7c2.1,2.2,3.4,5,3.4,8.7v0.2
		c0,6.2-3.5,9.9-8.3,11.9c6.5,2.1,10.6,5.8,10.6,13.1v0.2c0,9.2-7.5,14.7-20.2,14.7h-27.6V71.1z M204.3,87.6c0-3-2.4-4.6-6.7-4.6
		h-9.7v9.4h9.3c4.5,0,7.1-1.5,7.1-4.7V87.6z M199.2,102.8h-11.3v9.9h11.5c4.6,0,7.1-1.8,7.1-4.9v-0.2
		C206.5,104.7,204.2,102.8,199.2,102.8"/>
	<rect x="228.5" y="71.1" clip-path="url(#SVGID_2_)" fill="#1D1D1B" width="14.8" height="53.5"/>
	<path clip-path="url(#SVGID_2_)" fill="#1D1D1B" d="M249,116.6l8.3-9.9c5.3,4.2,11.2,6.4,17.3,6.4c4,0,6.2-1.4,6.2-3.7v-0.2
		c0-2.3-1.8-3.4-9.1-5.2c-11.4-2.6-20.2-5.8-20.2-16.7v-0.2c0-9.9,7.9-17.1,20.7-17.1c9.1,0,16.2,2.4,22,7.1l-7.4,10.5
		c-4.9-3.5-10.2-5.3-15-5.3c-3.6,0-5.3,1.5-5.3,3.4V86c0,2.4,1.8,3.5,9.3,5.2c12.2,2.7,19.9,6.6,19.9,16.7v0.2
		c0,10.9-8.6,17.4-21.6,17.4C264.6,125.4,255.7,122.5,249,116.6"/>
</g>
</svg>
